<?xml version="1.0" standalone="no"?>
<!DOCTYPE svg PUBLIC "-//W3C//DTD SVG 20010904//EN"
 "http://www.w3.org/TR/2001/REC-SVG-20010904/DTD/svg10.dtd">
<svg version="1.0" xmlns="http://www.w3.org/2000/svg"
 width="200.000000pt" height="200.000000pt" viewBox="0 0 200.000000 200.000000"
 preserveAspectRatio="xMidYMid meet">

<g transform="translate(0.000000,200.000000) scale(0.100000,-0.100000)"
fill="#000000" stroke="none">
<path d="M439 1523 c-13 -16 -12 -17 4 -4 9 7 17 15 17 17 0 8 -8 3 -21 -13z"/>
<path d="M1540 1536 c0 -2 8 -10 18 -17 15 -13 16 -12 3 4 -13 16 -21 21 -21
13z"/>
<path d="M425 1000 c0 -272 1 -384 2 -247 2 136 2 358 0 495 -1 136 -2 24 -2
-248z"/>
<path d="M1575 1005 c0 -269 1 -378 2 -242 2 137 2 357 0 490 -1 133 -2 22 -2
-248z"/>
<path d="M990 1376 c7 -7 13 -7 20 0 6 6 3 10 -10 10 -13 0 -16 -4 -10 -10z"/>
<path d="M1420 1300 c-10 -10 -28 -38 -40 -62 -11 -24 -15 -34 -8 -24 7 10 28
38 45 62 35 47 36 57 3 24z"/>
<path d="M738 1299 c21 -6 39 -6 50 0 13 8 5 10 -33 10 -48 -1 -49 -1 -17 -10z"/>
<path d="M814 1301 c3 -5 -4 -24 -17 -42 -32 -49 -77 -135 -77 -148 0 -6 7
-11 16 -11 8 0 13 4 9 9 -6 10 67 155 92 184 15 16 14 17 -6 17 -12 0 -20 -4
-17 -9z"/>
<path d="M882 1285 c-1 -13 3 -27 8 -30 5 -3 7 0 4 8 -3 8 2 22 11 31 15 15
15 16 -2 16 -13 0 -19 -8 -21 -25z"/>
<path d="M995 1280 c0 -33 9 -39 19 -13 4 9 1 22 -6 29 -11 11 -13 8 -13 -16z"/>
<path d="M1065 1290 c-16 -18 -17 -25 -5 -74 7 -30 10 -64 7 -75 -7 -27 12
-16 22 13 5 13 3 41 -6 71 -11 37 -12 54 -4 67 15 24 8 23 -14 -2z"/>
<path d="M1126 1295 c4 -8 8 -15 10 -15 2 0 4 7 4 15 0 8 -4 15 -10 15 -5 0
-7 -7 -4 -15z"/>
<path d="M1160 1249 c-41 -65 -68 -134 -57 -145 10 -10 36 16 31 30 -3 7 13
48 35 91 23 43 39 80 36 83 -2 2 -22 -24 -45 -59z"/>
<path d="M1248 1258 c-19 -29 -36 -57 -38 -63 -2 -5 -9 -24 -17 -42 -30 -74
-9 -62 30 17 23 47 51 97 61 113 10 15 14 27 9 27 -6 0 -26 -24 -45 -52z"/>
<path d="M1308 1279 c-10 -16 -13 -27 -8 -24 5 3 10 -28 12 -76 l3 -82 18 37
c9 21 13 35 8 31 -6 -3 -11 24 -13 69 l-3 76 -17 -31z"/>
<path d="M644 1279 c-3 -6 -2 -15 3 -20 5 -5 9 -1 9 11 0 23 -2 24 -12 9z"/>
<path d="M916 1252 c-44 -69 -90 -168 -71 -152 17 14 110 190 100 190 -3 0
-16 -17 -29 -38z"/>
<path d="M662 1237 c-29 -31 -54 -94 -47 -118 4 -11 15 -19 28 -19 20 1 20 2
5 11 -25 14 -23 28 11 93 17 31 29 56 27 56 -1 0 -12 -10 -24 -23z"/>
<path d="M934 1173 c9 -63 15 -83 26 -83 6 0 5 11 0 26 -6 14 -10 43 -10 65 0
22 -5 39 -11 39 -8 0 -9 -15 -5 -47z"/>
<path d="M1239 1158 c-17 -35 -24 -56 -16 -48 15 15 60 110 52 110 -3 0 -19
-28 -36 -62z"/>
<path d="M716 1163 c-6 -14 -5 -15 5 -6 7 7 10 15 7 18 -3 3 -9 -2 -12 -12z"/>
<path d="M980 1149 c-14 -25 -6 -49 15 -49 12 0 14 4 5 19 -5 11 -7 27 -4 35
9 23 -3 19 -16 -5z"/>
<path d="M801 1124 c-28 -20 -30 -24 -14 -24 12 0 28 11 37 25 9 14 15 25 14
24 -2 0 -18 -12 -37 -25z"/>
<path d="M1044 968 c-16 -18 -20 -26 -10 -18 18 14 19 13 12 -5 -4 -11 -13
-33 -18 -50 -6 -16 -15 -34 -19 -39 -13 -14 -11 -96 2 -96 5 0 8 4 5 8 -7 12
19 119 44 176 11 27 19 50 17 52 -2 2 -17 -11 -33 -28z"/>
<path d="M1440 987 c-8 -7 -28 -28 -45 -47 -24 -28 -20 -26 20 10 27 25 52 46
54 48 2 1 0 2 -5 2 -5 0 -16 -6 -24 -13z"/>
<path d="M706 977 c-11 -8 -17 -19 -15 -24 2 -6 12 0 22 13 20 27 19 30 -7 11z"/>
<path d="M799 978 c11 -15 11 -22 -4 -45 l-18 -28 21 19 c27 23 28 39 5 57
-16 13 -17 12 -4 -3z"/>
<path d="M875 981 c3 -6 -12 -39 -34 -74 -21 -35 -46 -78 -55 -95 -16 -31 -16
-32 5 -32 12 0 20 3 16 6 -7 7 54 132 85 177 19 27 19 27 -2 27 -12 0 -19 -4
-15 -9z"/>
<path d="M946 975 c4 -8 7 -15 9 -15 2 0 5 7 9 15 3 9 0 15 -9 15 -9 0 -12 -6
-9 -15z"/>
<path d="M1116 958 c-57 -76 -95 -178 -67 -178 14 0 26 22 23 43 -2 10 15 51
37 92 22 41 38 75 36 75 -2 0 -15 -15 -29 -32z"/>
<path d="M1218 978 c-44 -36 -98 -146 -98 -197 1 -19 5 -13 18 24 10 28 37 81
60 118 44 70 46 75 20 55z"/>
<path d="M1289 978 l44 -10 -6 -50 c-4 -27 -18 -70 -31 -95 -14 -24 -20 -43
-13 -40 17 5 64 90 60 107 -2 9 0 34 5 56 l9 41 -56 0 -56 1 44 -10z"/>
<path d="M727 928 c-28 -39 -77 -123 -77 -134 0 -4 9 1 20 11 11 10 20 22 20
27 0 5 16 36 35 69 38 65 39 77 2 27z"/>
<path d="M1210 903 c-50 -61 -55 -117 -10 -120 15 -1 18 0 8 3 -27 8 -22 54
12 107 36 57 32 60 -10 10z"/>
<path d="M923 905 c-3 -9 -3 -18 -1 -21 3 -3 8 4 11 16 6 23 -1 27 -10 5z"/>
<path d="M957 868 c-32 -42 -50 -78 -44 -85 3 -3 15 15 27 39 12 23 29 51 38
61 8 9 12 17 9 17 -3 0 -17 -15 -30 -32z"/>
<path d="M771 865 c0 -11 -10 -36 -22 -55 l-21 -35 27 26 c20 20 26 33 22 55
-2 17 -5 21 -6 9z"/>
<path d="M1271 843 c-10 -26 -10 -27 4 -9 8 11 15 23 15 28 0 15 -7 8 -19 -19z"/>
<path d="M866 804 c-21 -19 -25 -25 -12 -23 10 2 25 14 34 27 19 28 14 27 -22
-4z"/>
<path d="M986 672 c-2 -4 4 -8 14 -8 10 0 16 4 14 8 -3 4 -9 8 -14 8 -5 0 -11
-4 -14 -8z"/>
<path d="M883 577 c-9 -18 -8 -24 2 -24 7 0 13 11 13 24 0 13 -1 23 -3 23 -1
0 -7 -10 -12 -23z"/>
<path d="M940 593 c0 -5 6 -15 13 -22 10 -10 9 -11 -5 -6 -11 4 -18 2 -18 -4
0 -15 48 -10 55 7 2 7 1 11 -4 7 -5 -3 -17 2 -25 11 -9 8 -16 12 -16 7z"/>
<path d="M1360 580 c-6 -11 -9 -20 -8 -21 25 -6 38 -5 38 4 0 8 3 8 8 2 11
-16 59 -17 65 -2 4 10 -7 13 -42 14 -29 0 -45 4 -43 12 3 18 -6 13 -18 -9z"/>
<path d="M1216 583 c-4 -5 -13 -8 -18 -8 -6 0 -13 -7 -15 -15 -4 -13 -3 -13 7
0 10 12 11 11 7 -7 -7 -31 0 -29 18 7 15 30 16 37 1 23z"/>
<path d="M528 569 c-7 -5 -9 -11 -5 -16 5 -4 12 -1 17 7 7 11 10 11 10 2 0 -7
6 -12 13 -11 32 4 38 -1 27 -23 -11 -22 -10 -22 4 -4 9 11 16 23 16 26 0 4 10
6 23 4 12 -1 26 -3 30 -3 5 -1 5 -7 2 -13 -4 -7 1 -4 9 6 9 11 16 22 16 26 0
8 -148 7 -162 -1z"/>
<path d="M706 564 c-6 -15 15 -15 26 0 4 6 20 6 43 -1 27 -9 35 -9 32 0 -5 17
-95 18 -101 1z"/>
<path d="M821 563 c0 -11 3 -13 6 -5 2 6 9 12 14 12 6 0 7 -4 4 -10 -3 -5 -1
-10 4 -10 6 0 11 7 11 15 0 8 -9 15 -20 15 -13 0 -20 -6 -19 -17z"/>
<path d="M1020 561 c0 -14 2 -14 10 -1 5 8 10 10 10 4 0 -6 7 -11 15 -11 8 0
11 5 8 10 -3 6 -1 7 5 3 7 -4 12 -15 12 -24 1 -13 4 -11 14 7 8 15 15 20 19
12 4 -8 5 -7 3 1 -2 8 -20 14 -49 14 -38 2 -47 -1 -47 -15z"/>
<path d="M1131 563 c0 -11 3 -13 6 -5 2 6 9 12 14 12 6 0 7 -5 3 -12 -4 -7 -3
-8 4 -4 19 11 14 26 -8 26 -13 0 -20 -6 -19 -17z"/>
<path d="M1252 570 c-14 -10 -11 -29 3 -24 8 4 15 10 15 15 0 5 9 4 20 -3 16
-10 23 -10 36 3 14 15 12 16 -26 15 -23 0 -44 -3 -48 -6z"/>
<path d="M988 263 c6 -2 18 -2 25 0 6 3 1 5 -13 5 -14 0 -19 -2 -12 -5z"/>
</g>
</svg>
